<?xml version="1.0" encoding="UTF-8"?>
<svg id="Calque_2" data-name="Calque 2" xmlns="http://www.w3.org/2000/svg" xmlns:xlink="http://www.w3.org/1999/xlink" viewBox="0 0 394.65 587.01">
  <defs>
    <style>
      .cls-1 {
        fill: #ebdfe7;
      }

      .cls-1, .cls-2, .cls-3, .cls-4, .cls-5 {
        stroke-width: 0px;
      }

      .cls-2 {
        fill: #d4b6d3;
      }

      .cls-3 {
        fill: #f2ebef;
      }

      .cls-4 {
        fill: #fcfbfc;
      }

      .cls-5 {
        fill: #e4d4e0;
      }
    </style>
    <symbol id="Nouveau_symbole" data-name="Nouveau symbole" viewBox="0 0 394.65 587.01">
      <g>
        <g>
          <path class="cls-4" d="m24.44,368.47c.13.07.25.14.38.21-.1-.09-.2-.17-.3-.26l-.08.05Z"/>
          <path class="cls-4" d="m285.05,74.08c12.8,7.98,23.24,18.63,33.16,29.81,27.77,34.5,38.66,80.83,22.52,122.42-.33.84-.59,1.58-.81,2.26-12.06,32.99-40.52,55.62-74.44,61.72.14-.18.29-.35.42-.54,19.85-29.51-3.69-59.65-25.03-78.81-6.94,2.05-11.07-4.93-17.31-5.74-15.73-.75-45.66-23.34-52.57-37.41-21.63,10.87-39.59,25.92-66.15,20.1,18.93,12.62,42.2,8.87,62.95,4.1-15.74,18.16-18.82,30.18-46.04,35.08,16.98,5.7,32.93,1.13,48.47-5.36.36-.53.78-.86,1.41-.38-2.13,2.32-4.5,4.39-6.74,6.6-14.87,15.62-33.22,26.14-54.73,28.92-13.51-14.98-21.79-33.89-25.71-53.56C67.16,94.44,173.13-3.43,279.93,9.6c.78.11,1.56.22,2.33.33.74.1,1.47.21,2.21.31,1.85.32,3.7.64,6.55,1.14-2.68-1.44-4.56-2-6.53-2.31C254.85.73,224.74-1.97,194.12,1.43c-.27.02-.54.05-.81.07-.45.1-.9.19-1.35.29-29.54,3.26-57.36,11.94-83.33,26.47-1.49.4-2.86,1.02-3.96,2.14C58.96,55.64,23.03,98.12,8.56,148.58,3.53,164.89.9,181.65.5,198.7c-.87,6.69-.48,13.38.16,20.06.71.74.73,1.49.07,2.27,1.06,19.78,5.39,38.84,12.68,57.25.96,2.58,1.99,5.12,3.06,7.64-.06,0-.11.02-.17.02.09.08.18.15.27.23,18.92,44.32,54.92,79.3,96.52,102.89-31.62,4.26-60.93-5.48-88.27-20.39,40.37,35.78,95.63,47.53,148.26,44.92,35.35,8.51,73.16,5.76,106.83-8.03.6-.09,1.22-.13,1.61-.66,23.84-9.45,45.79-24.57,63.2-43.42,10.76-11.62,20.83-24.63,26.82-39.37,45.65-88.14,3.96-208.23-86.47-248.04Z"/>
          <path class="cls-4" d="m142.57,148.6c-7.37-.09-14.7-.69-21.98-1.87-6.64-1.82-13.23-3.75-19.36-6.98,0,0,0,0,0,0-.84-.52-1.27.11-.38.36,1.66,2.97,4.3,4.98,6.95,6.96,13.71,10.37,29.13,16.05,46.3,16.97,3.05-1.73,3.66-3.7,1.14-6.11-3.79-3.64-6.78-8.51-12.68-9.33Z"/>
          <path class="cls-4" d="m153.36,147.85c-.8.05-1.61.11-2.41.16.16,2.32,2.55,2.06,2.41-.16Z"/>
        </g>
        <g>
          <path class="cls-2" d="m281.5,404.92l.13-.06c.42-1.08,0-2.09-.91-3.02-1.35-1.33-3.73-2.54-6.1-3.57-2.55-1.1-5.09-2.02-6.29-2.73-12.82-5.29-24.46-12.81-36.4-19.78-2.76-1.61-5.53-3.19-8.34-4.7-1.37-.91-2.82-1.78-4.31-2.62-2.6-1.48-5.32-2.89-7.99-4.37-2.25-1.25-4.47-2.55-6.54-3.99-.28-.19-.55-.39-.83-.59-.1-.07-.21-.14-.31-.22-4.47-3.3-8.13-7.33-9.82-12.99-9.42,2.87-19.29,4.64-29.21,5.31-16.1,1.09-32.39-1.72-47-5.89-17.3-4.91-33.16-13.01-47.41-23.39-14.26-10.12-26.97-22.52-37.35-36.54-.97-1.24-1.93-2.5-2.88-3.76-.02,0-.04.02-.06.03-1.19.57-2.31.8-3.39.78-.65,0-1.27-.1-1.89-.26-.07-.02-.14-.04-.21-.06-.27-.07-.53-.16-.8-.25-.06-.02-.12-.04-.18-.07-.13-.05-.27-.1-.4-.16-.22-.09-.43-.18-.65-.28-.25-.11-.5-.23-.75-.35-.25-.12-.5-.25-.74-.38-.13-.07-.26-.13-.39-.2-1.58-.83-3.16-1.7-4.85-2.16,0,0,0,0-.01,0-.39-.11-.78-.19-1.18-.24-.31-.04-.63-.08-.95-.08.96,2.58,1.99,5.12,3.06,7.64-.06,0-.11.02-.17.02.09.08.18.15.27.23,18.92,44.32,54.92,79.3,96.52,102.89-31.62,4.26-60.93-5.48-88.27-20.39,40.37,35.78,95.63,47.53,148.26,44.92,35.34,8.51,73.16,5.76,106.83-8.03.21-.1.42-.2.63-.29.33-.17.69-.35.86-.41Z"/>
          <path class="cls-2" d="m24.55,368.52c.13.07.25.14.38.21-.1-.09-.2-.17-.3-.26l-.08.05Z"/>
          <path class="cls-5" d="m175.06,247.41c2.33,2.24,5.2,4.31,8.84,6.42,9.87,6.11,19.25,12.91,28.25,20.22,3,2.44,5.96,4.93,8.87,7.46.92.8,1.83,1.66,2.57,2.63.25.32.47.66.68,1.01.3.52.55,1.08.72,1.67.17.6.26,1.23.25,1.91,9.81,2.53,19.78,4.13,30.1,2.94,3.47-.27,6.89-.72,10.26-1.33.15-.17.29-.35.42-.54,19.85-29.51-3.69-59.65-25.03-78.81-2.6.77-4.81.27-6.88-.7-.04-.02-.08-.04-.12-.06-.69-.33-1.36-.71-2.02-1.11-2.64-1.58-5.21-3.47-8.28-3.86-5.11-.24-11.73-2.8-18.57-6.62-8.28-4.62-16.87-11.08-23.53-17.57-4.76-4.63-8.53-9.27-10.47-13.23-21.63,10.87-39.59,25.92-66.15,20.1,18.93,12.62,42.21,8.87,62.95,4.1-15.74,18.16-18.82,30.18-46.04,35.08,16.98,5.7,32.93,1.13,48.47-5.36.36-.53.78-.86,1.41-.38-2.13,2.32-4.5,4.39-6.74,6.6,1.08,3.96,2.2,7.3,3.57,10.24,1.65,3.53,3.68,6.48,6.48,9.17Z"/>
          <path class="cls-3" d="m71.54,90.49c-17.05,25.66-28.02,55.1-29.9,86.68.13.09.27.17.42.25.44.23.91.46,1.09.82.12.25.25.51.39.77.03.05.05.1.08.15.03.06.07.12.1.17.68,1.21,1.58,2.53,2.67,3.9.03.03.05.06.08.1.26.33.53.65.81.99.21.25.44.5.66.75.1.12.2.23.3.35,3.31,3.68,7.7,7.54,12.29,10.6.02.01.04.03.06.04.34.22.68.44,1.02.66.13.08.25.16.38.24.23.14.46.28.69.42.24.14.47.29.71.43.12.07.24.13.36.2.35.2.69.39,1.04.58.02.01.04.02.06.03,5.57,2.96,11.04,4.32,14.93,2.4,1.86-.99,2.61-.11,3.29.86.16.22.31.45.47.66.29.38.61.7,1.02.85C67.26,94.48,173.24-3.39,280.04,9.64c.33-.22.65-.38.96-.43.51-.09.98.1,1.38.77.74.1,1.47.21,2.21.31,0-.39,0-.78.02-1.17C254.96.78,224.85-1.92,194.23,1.47c-.24.4-.51.38-.81.07-.45.1-.9.19-1.35.29-31.63,9.5-61.9,26.75-86.9,49.6-12.75,11.66-24.14,24.76-33.63,39.05Z"/>
          <path class="cls-5" d="m344.63,360.21c.28-1.67,2.22-3.46,2.98-5.22.31-.73.42-1.45.13-2.15-.33-.81-1.18-1.59-2.85-2.35-6.75-3.21-13.94-6.16-20.69-9.73-5.66-3-11.01-6.43-15.52-10.84-.57-1.07-1.21-1.91-1.9-2.59-1.54-1.51-3.33-2.24-5-3.02-1.3-.6-2.53-1.24-3.52-2.31-.17-.18-.33-.38-.48-.6-4.88,2.12-10,4.03-15.35,5.72-3.12,1.08-6.35,2.04-9.79,2.79,0,0,0,0,0,0,.21-.04.14-.01,0,0-.02,0-.04,0-.06.01-.06.01-.13.03-.19.05.02-.02.04-.04.07-.06-.65-.08-1.33-1.01,7.54-7.71.14-.1.28-.23.42-.34-3.04-2.59-6.95-3.99-10.46-5.82-3.67-1.9-6.91-4.28-8.25-9-1.03-2.74-2.87-5.17-3.8-7.96-.17-.51-.31-1.02-.41-1.56-.15-.8-.2-1.64-.13-2.52.03-.41-.17-.68-.49-.89.03,0,.06,0,.08-.01-.49-.37-1.32-.48-1.98-.58.12-.62.25-1.24.38-1.86-9.38,27.8-33.44,46.06-61.53,54.61,1.69,5.67,5.35,9.7,9.82,12.99.1.07.2.15.31.22.27.2.55.39.83.59,2.07,1.43,4.29,2.74,6.54,3.99,2.67,1.48,5.39,2.89,7.99,4.37,1.49.84,2.93,1.71,4.31,2.62,2.81,1.51,5.58,3.09,8.34,4.7,11.95,6.97,23.59,14.49,36.4,19.78,1.14.67,3.7,1.6,6.29,2.73,2.37,1.03,4.75,2.24,6.1,3.57.95.94,1.38,1.95.92,3.01h0s-.09.04-.13.06c-.29.13-.58.27-.86.41-.21.1-.42.2-.63.29.6-.09,1.22-.13,1.61-.66,23.84-9.45,45.79-24.57,63.2-43.42-.22-.43-.27-.87-.19-1.32Z"/>
          <path class="cls-1" d="m2.23,199.51c.78,1.11,1.02,3.33,1.68,5.86.78,2.91,2.09,6.22,5.25,8.75,5.95,5.2,12.52,9.32,19.12,13.39,7.05,4.34,14.12,8.63,20.52,14.11,0,0,0,0,.01.01,16.52,13.14,37.83,20.26,51.34,36.99,1.89,2.34,6.35,3.73,4.8,7.3-.02,0-.04.01-.06.02,21.89.36,41.7,23.94,39.03,45.98.3.1.24.08.54.19,2.34-3.97,3.74-7.96,4.37-11.92,1.8-12.11-3.58-23.88-12.11-33.51,0,0-.01-.01-.02-.02-.21-.24-.43-.47-.64-.71-.19-.2-.37-.41-.56-.61-.03-.04-.07-.07-.1-.1-6.83-7.23-15.38-13.13-23.7-16.89,2.54.27,5.43.42,8.41.68-.04-.12-.09-.24-.14-.36-.22-.56-.47-1.1-.78-1.6,0-.01-.01-.02-.02-.03-.39-.62-.84-1.21-1.32-1.77-.4-.46-.83-.91-1.27-1.35,0,0,0,0-.01-.01-.5-.49-1.02-.97-1.53-1.45-1.13-1.05-2.27-2.1-3.24-3.28-.58-.71-1.09-1.46-1.5-2.29-13.51-14.99-21.79-33.89-25.71-53.56-.42-.15-.73-.47-1.02-.85-.16-.21-.32-.44-.47-.66-.68-.97-1.43-1.84-3.29-.85-3.89,1.92-9.36.56-14.93-2.4-.02-.01-.04-.02-.06-.03-.35-.18-.69-.38-1.04-.58-.12-.07-.24-.13-.36-.2-.24-.14-.47-.28-.71-.43-.23-.14-.46-.27-.69-.42-.13-.08-.25-.16-.38-.24-.34-.21-.68-.43-1.02-.66-.02-.01-.04-.03-.06-.04-4.59-3.06-8.98-6.92-12.29-10.6-.1-.12-.2-.23-.3-.35-.22-.25-.45-.5-.66-.75-.28-.33-.55-.66-.81-.99-.03-.03-.05-.06-.08-.1-1.1-1.38-2-2.69-2.67-3.9-.03-.06-.07-.12-.1-.17-.03-.05-.05-.1-.08-.15-.14-.26-.27-.52-.39-.77-.18-.36-.65-.58-1.09-.82-.15-.08-.29-.16-.42-.25v17.2c-.31-1.14-.61-2.27-.89-3.4-.06-.26-.13-.52-.19-.78-2.04-8.33-3.28-16.55-3.79-24.64-.86-.26-1.71-.39-2.58-.41-.93-.02-1.87.07-2.84.22-4.02.9-7.88-.04-11.17-2.09-.27-.17-.52-.36-.79-.54-3.85-2.69-6.82-6.9-8.2-11.39-.12-.84-.64-1.44-1.28-1.92-.39-.29-.82-.54-1.24-.78-5.02,16.31-7.66,33.07-8.05,50.12.74-.12,1.24.18,1.62.76Z"/>
          <path class="cls-1" d="m205.11,198.63c6.83,3.81,13.44,6.37,18.57,6.62,3.08.4,5.64,2.29,8.28,3.87.67.4,1.34.78,2.02,1.11.04.02.08.04.12.06,2.07.97,4.28,1.47,6.88.7-12.33-13.39-23.15-28.72-25.31-47.34,16.93,19.74,26.2.36,41.72,12.79,3.01,2.27,8.79,11.16,12.08,4.81.26-.49,1.64-.5,2.51-.55,11.61-23.38-10.03-18.4-20.55-35.43-5.78-8.03-13.17-13.55-22.68-16.21-1.58-.44-2.44-1.2-1.97-2.99,1.95-7.43-1.91-14.51-.67-22.71-6.46,7.17-9.96,14.45-9.53,23.43-8.83-6.58-19.37-8.97-30.84-7.04,4.51,1.86,9.5,2.4,13.1,6.67-11.98-1.1-23.41,1.98-34.78-.94,9.75,5.49,20.2,8.25,31.77,9.56-13.3,7.41-27.56,10.53-42.36,12.86.02.28,0,.52-.06.74h0c-.03.11-.06.21-.1.3-.22.51-.64.76-1.06.74-.03,0-.07,0-.1,0,0,0,0,0,0,0-.37-.06-.73-.34-.93-.86-.08-.21-.14-.46-.15-.75-2.79.2-5.59.4-8.38.6,5.89.83,8.89,5.7,12.68,9.33,2.51,2.41,1.9,4.37-1.14,6.11,7.16,1.56,14.52-.04,22.4,1-2.33,1.16-3.91,1.95-5.5,2.74,1.96,3.98,5.73,8.61,10.47,13.23,6.66,6.49,15.26,12.95,23.53,17.57Zm66.27-27.04c.85,4.12-5.5.48-5.13-2.25.41-3.97,6.57-1.43,5.13,2.25Zm-29.95-22.76c-3.59-.91-7.66,1.8-9.77-4.32,7.3-1.29,8.26-1.29,9.77,4.32Z"/>
          <path class="cls-3" d="m285.16,74.12c12.8,7.98,23.24,18.63,33.16,29.81,5.52,0,8.02,4.23,10.8,7.49,19.4,22.71,30.07,50.91,34.61,80.06.59,3.44,1.06,6.89,1.42,10.35,5.5,34.72-3.39,66.02-24.7,89.66,4.56,3.96,5.52,9.26,9.32,13.73.19.22.37.44.57.65.29.46.63.88.99,1.27.03.03.06.07.09.11,2.54,2.67,6.59,3.9,10.3,5.1,3.02.98,5.81,1.94,7.41,3.68,1.06,1.14,1.58,2.62,1.3,4.65,0,.05,0,.1-.02.16-.08.52.3.86.75,1.11.15.08.31.15.46.22,45.65-88.14,3.96-208.23-86.47-248.04Z"/>
          <path class="cls-4" d="m340.03,228.62c.27-.75.55-1.5.81-2.26-.33.84-.59,1.58-.81,2.26Z"/>
          <path class="cls-4" d="m272.37,329.97c.06-.01.13-.03.19-.05.02,0,.05,0,.06-.01,0,0,0,0,0,0,0,0-.02,0-.03,0-.07.02-.15.04-.22.06Z"/>
          <path class="cls-4" d="m339.01,235.92c-.3.63-.62,1.27-.94,1.91-9.23,32.09-31.22,64.81-57.27,84.36-.13-.12-.27-.22-.41-.34-.14.11-.28.23-.42.34-8.87,6.7-8.19,7.62-7.54,7.71.05,0,.11,0,.16,0,3.36-.85,6.63-1.78,9.82-2.79,5.35-1.69,10.47-3.6,15.35-5.72-.02-.02-.04-.04-.05-.06,15.35-8.05,30.96-16.94,42.54-30.03.07.06.13.12.2.18,21.31-23.64,30.2-54.94,24.7-89.66-.07-.44-.13-.88-.21-1.33-.34-3.01-.74-6.02-1.21-9.02-4.55-29.15-15.21-57.35-34.61-80.06-2.78-3.26-5.28-7.5-10.8-7.49,27.77,34.5,38.66,80.83,22.52,122.42-.5,2.64-1.11,5.29-1.8,7.96.08.72.23,1.08-.03,1.6Z"/>
          <path class="cls-4" d="m272.63,329.91c.14-.01.21-.04,0,0h0Z"/>
          <path class="cls-5" d="m15.64,278.66s0,0,.01,0c1.68.46,3.27,1.33,4.85,2.16.13.07.26.13.39.2.25.13.49.25.74.38.25.12.5.24.75.35.22.1.43.19.65.28.13.05.27.11.4.16.06.02.12.05.18.07.26.09.53.17.8.25.07.02.14.04.21.06.62.16,1.25.25,1.89.26,1.08.01,2.2-.21,3.39-.78.02,0,.04-.02.06-.03-.69-.92-1.36-1.84-2.04-2.78.98.37,1.96.71,2.95,1.05,1.16.4,2.32.8,3.49,1.18.36.12.72.23,1.07.35.73.23,1.45.46,2.18.68,21.28,6.42,44.16,8.28,66.19,3.43.36,0,.71.01,1.06.02.02,0,.04,0,.06-.02,1.55-3.57-2.92-4.96-4.8-7.3-13.51-16.73-34.82-23.86-51.34-36.99,0,0,0,0-.01-.01-6.4-5.48-13.48-9.77-20.52-14.11-6.6-4.07-13.17-8.19-19.12-13.39-3.15-2.53-4.47-5.84-5.25-8.75-.68-2.52-.95-4.74-1.68-5.86-.38-.58-.87-.88-1.62-.76-.87,6.69-.48,13.38.16,20.06.71.74.73,1.49.07,2.27,1.06,19.78,5.39,38.84,12.68,57.25.32,0,.64.04.95.08.4.06.79.14,1.18.24Z"/>
          <path class="cls-2" d="m115.01,262.48c.52.48,1.04.96,1.53,1.45,0,0,0,0,.01.01.44.44.87.88,1.27,1.35.49.56.94,1.14,1.32,1.77,0,.01.02.02.02.03.31.5.57,1.04.78,1.6.05.12.09.24.14.36,6.27.55,12.94,1.6,17.7,5.23,5.74,4.38,10.26,14.4,10.26,14.4,13.27-1.52,29.38,6.23,39.49,19.54,4.93,6.05,8.32,13.59,9.48,22.79,2.91-9.1,2.35-17.86-.68-25.63-1.4-3.58-3.31-6.95-5.66-10.04-.06-.08-.13-.17-.2-.25-.51-.66-1.04-1.3-1.58-1.93-5.69-6.6-13.4-11.79-22.1-14.88,3.01-.34,4.55-1.68,7.49-1.61,17.22.41,33.84,7.66,50.93,12.07.01-.68-.08-1.31-.25-1.91-.17-.59-.41-1.14-.72-1.67-.2-.35-.43-.68-.68-1.01-.74-.97-1.65-1.83-2.57-2.63-2.92-2.54-5.88-5.03-8.87-7.46-9-7.3-18.38-14.11-28.25-20.22-3.64-2.1-6.51-4.17-8.84-6.42-2.8-2.7-4.83-5.64-6.48-9.17-1.37-2.94-2.49-6.29-3.57-10.24-14.87,15.62-33.22,26.14-54.73,28.92.41.83.93,1.58,1.5,2.29.96,1.18,2.1,2.23,3.24,3.28Z"/>
          <path class="cls-4" d="m104.75,30.48s0,0,0,0c-25.71,20.58-45.85,48.65-57.47,78.62-7.04,18.15-11.82,35.59-10.34,56.49-.06-.02-.12-.03-.18-.05.51,8.09,1.75,16.32,3.79,24.64.06.26.12.52.19.78.28,1.13.58,2.27.89,3.4v-17.2c1.88-31.58,12.85-61.02,29.9-86.68,9.5-14.29,20.88-27.39,33.63-39.05C130.17,28.59,160.43,11.34,192.06,1.84c-29.54,3.26-57.36,11.94-83.33,26.47-.67,1.94-2.24,2.21-3.98,2.17Z"/>
          <path class="cls-1" d="m370.43,320.84c0-.06,0-.11.02-.16.27-2.03-.25-3.51-1.3-4.65-1.59-1.73-4.39-2.7-7.41-3.68-3.71-1.2-7.75-2.42-10.3-5.1-.03-.03-.06-.07-.09-.11-.36-.39-.7-.81-.99-1.27-.2-.21-.38-.43-.57-.65-3.81-4.47-4.77-9.77-9.32-13.73-.07-.06-.13-.12-.2-.18-11.58,13.08-27.18,21.97-42.54,30.03.02.02.03.04.05.06.15.21.31.41.48.6.99,1.07,2.22,1.71,3.52,2.31,1.66.77,3.45,1.5,5,3.02.69.68,1.33,1.52,1.9,2.59,4.51,4.42,9.86,7.85,15.52,10.84,6.75,3.57,13.95,6.52,20.69,9.73,1.67.75,2.52,1.54,2.85,2.35.29.71.18,1.43-.13,2.15-.75,1.77-2.69,3.56-2.98,5.22-.08.45-.03.89.19,1.32,10.76-11.62,20.83-24.63,26.82-39.37-.15-.07-.31-.14-.46-.22-.45-.25-.82-.59-.75-1.11Z"/>
          <path class="cls-3" d="m11.19,151.33c1.37,4.49,4.35,8.7,8.2,11.39.26.18.52.37.79.54,3.29,2.06,7.15,3,11.17,2.09.98-.15,1.92-.25,2.84-.22.86.02,1.72.15,2.58.41.06.02.12.03.18.05-1.47-20.9,3.31-38.34,10.34-56.49,11.62-29.97,31.76-58.05,57.47-78.62,0,0,0,0,0,0,1.75.04,3.32-.23,3.98-2.17-1.49.4-2.86,1.02-3.96,2.14C59.07,55.68,23.14,98.16,8.66,148.63c.43.24.86.49,1.24.78.64.48,1.15,1.08,1.28,1.92Z"/>
          <path class="cls-1" d="m254.96,293.53c.66.1,1.49.21,1.98.58.27.21.44.49.4.9-.07.89-.01,1.72.13,2.52.1.53.24,1.05.41,1.56.93,2.79,2.77,5.22,3.8,7.95,1.35,4.72,4.58,7.09,8.25,9,3.52,1.82,7.42,3.22,10.46,5.82.13.11.28.22.41.34,26.06-19.56,48.04-52.27,57.27-84.36.34-1.17.66-2.35.96-3.52.69-2.66,1.3-5.32,1.8-7.96-.26.76-.54,1.51-.81,2.26-12.06,32.99-40.52,55.62-74.44,61.72-3.37.61-6.79,1.06-10.26,1.33-.13.62-.25,1.24-.38,1.86Z"/>
          <path class="cls-5" d="m155.35,157.98c-3.79-3.64-6.78-8.51-12.68-9.33-7.37-.09-14.7-.69-21.98-1.87-.76.58-1.59.83-2.48.88-1.52.1-3.16-.4-4.7-.86-1.44-.43-2.8-.83-3.9-.69-.68.09-1.27.38-1.71,1.01,13.71,10.37,29.13,16.05,46.3,16.97,3.05-1.74,3.66-3.7,1.14-6.11Z"/>
          <path class="cls-2" d="m109.62,146.11c1.1-.14,2.46.26,3.9.69,1.54.46,3.18.96,4.7.86.88-.06,1.72-.31,2.48-.88-6.64-1.82-13.23-3.75-19.36-6.98,0,0,0,0,0,0-.84-.52-1.27.11-.38.36,1.66,2.97,4.3,4.98,6.96,6.96.44-.63,1.03-.92,1.71-1.01Z"/>
          <path class="cls-2" d="m291.13,11.43c-2.68-1.44-4.56-2-6.53-2.31,0,.39-.01.78-.02,1.17,1.85.32,3.7.64,6.55,1.14Z"/>
          <path class="cls-5" d="m152.14,149.67s0,0,0,0c.03,0,.07,0,.1,0,.42.02.84-.23,1.06-.74.04-.09.07-.19.1-.3h0c.05-.22.07-.46.06-.74-.8.05-1.61.11-2.41.16.02.29.07.54.15.75.2.52.56.8.93.86Z"/>
          <path class="cls-2" d="m280.99,9.21c-.31.05-.63.21-.96.43.78.11,1.56.22,2.33.33-.4-.66-.87-.86-1.38-.77Z"/>
          <path class="cls-4" d="m194.23,1.47c-.27.02-.54.05-.81.07.3.3.58.33.81-.07Z"/>
          <path class="cls-3" d="m225.23,288.73c-17.09-4.41-33.71-11.66-50.93-12.07-2.93-.07-4.48,1.27-7.49,1.61,8.7,3.09,16.41,8.28,22.1,14.88.55.63,1.08,1.28,1.58,1.93.06.08.13.16.2.25,2.35,3.1,4.26,6.47,5.66,10.04,3.03,7.77,3.59,16.52.68,25.63-1.08-8.62-4.58-16.35-9.48-22.79-10.12-13.3-26.22-21.06-39.49-19.54,0,0-4.52-10.02-10.26-14.4-4.76-3.63-11.43-4.68-17.7-5.23-2.98-.26-5.86-.42-8.41-.68,8.4,3.76,16.91,9.67,23.7,16.89.03.04.06.07.1.1.19.2.38.4.56.61.22.24.43.47.64.71,0,0,.01.01.02.02,8.52,9.62,13.91,21.4,12.11,33.51-.66,4.41-2.26,8.86-5.01,13.27-.5-.55-.28-1.05.11-1.54,2.67-22.03-17.13-45.62-39.03-45.98-.35,0-.71-.02-1.06-.02-22.03,4.85-44.91,2.99-66.19-3.43-.73-.22-1.46-.45-2.18-.68-.36-.11-.72-.23-1.07-.35-1.17-.38-2.33-.78-3.49-1.18-.98-.35-1.97-.69-2.95-1.05.67.93,1.35,1.86,2.04,2.78.94,1.27,1.9,2.52,2.88,3.76,10.78,13.82,23.28,26.3,37.35,36.54,14.25,10.38,30.1,18.48,47.41,23.39,14.61,4.16,30.9,6.98,47,5.89,9.92-.67,19.79-2.45,29.21-5.31h0c28.09-8.55,52.15-26.81,61.53-54.61-10.33,1.18-20.29-.41-30.1-2.94Z"/>
          <path class="cls-1" d="m143.8,333.47c.18-.39.35-.77.53-1.16-.14-.13-.28-.26-.42-.39-.39.49-.61.99-.11,1.54Z"/>
        </g>
        <g>
          <path class="cls-4" d="m88.17,460.78c0-.6-.12-1.68-.72-2.28-.36-.24-.48-.72-.48-1.08,0-.6.48-1.2,1.56-1.2,5.04,0,11.64,5.4,11.64,10.44,0,29.88-19.2,95.76-27,95.76-4.08,0-8.28-3.12-10.2-4.8-4.32-3.96-4.8-33.84-4.8-58.56-2.88,7.8-9.12,20.64-10.8,33.12.48,7.2.84,14.28.84,21,0,1.68-1.68,2.52-4.08,2.52-4.56,0-11.16-2.88-11.16-6.96,0-62.88-16.08-70.44-18.6-70.44-.84,0-1.32-.48-1.32-1.08,0-2.88,7.56-10.44,15.24-10.44s14.16,24,17.52,51c4.08-15.12,11.4-31.32,12.84-32.76.72-.72,2.04-1.08,3.6-1.08,4.2,0,9.96,2.64,9.96,7.68v6.12c0,15.96,0,49.56,3,49.56.12,0,.36-.12.48-.24,1.92-1.92,12.48-39.48,12.48-86.28Z"/>
          <path class="cls-4" d="m136.65,529.54c.12-1.08.6-1.56,1.2-1.56,1.32,0,3.24,2.28,3.24,4.8,0,11.28-8.28,26.64-20.28,26.64-15.48,0-22.2-13.92-22.2-28.56,0-21.36,7.68-30.12,17.88-30.12,0-2.88,2.16-3.36,3.36-3.36,6.72,0,9.12,4.68,9.12,14.04,0,14.76-10.08,26.04-17.52,26.04h-1.08c1.68,5.76,5.4,11.4,12.72,11.4,8.52,0,12.6-9.72,13.56-19.32Zm-18.12-24.12c-4.68.96-9.12,9.72-9.12,24.6,0,.84.12,1.8.12,2.64,2.88-.36,10.2-7.44,10.2-20.4,0-3.36-.6-5.4-1.2-6.84Z"/>
          <path class="cls-4" d="m154.05,553.66c0-1.8,2.04-2.64,4.44-2.64.6,0,1.08,0,1.68.12,7.56-7.32,9.96-33.84,9.96-42.12,0-5.88-1.44-8.52-3.6-8.52-5.88,0-17.04,20.16-17.4,49.44,1.2,5.16,2.76,6,2.76,7.68,0,1.2-1.32,1.8-3.12,1.8-5.88,0-13.44-1.92-13.44-14.04,0-21.12,3.96-64.08,12.96-73.08,2.52-2.52,6.96-3.48,10.92-3.48,4.44,0,8.28,1.2,8.28,2.88,0,1.8-2.04.24-5.16,3.36-3.6,3.6-11.64,20.64-14.04,44.28,4.08-13.32,10.44-24.36,17.76-24.36,6.48,0,11.04,2.16,14.52,5.76,1.92,1.92,3.12,8.64,3.12,16.8,0,9.96-1.44,26.28-8.64,36.48,2.16.6,6.36,1.68,9.84-4.2,2.04-3.6,4.08-10.2,4.92-16.68,0-.36.48-.6,1.08-.6,1.32,0,3.48.96,3.48,2.4,0,2.4-.96,11.28-3.96,18.36-3.36,7.92-11.04,8.52-21.48,6.12-5.76,5.28-14.88.48-14.88-5.76Z"/>
          <g>
            <path class="cls-2" d="m227.37,529.54c.12-1.08.6-1.56,1.2-1.56,1.32,0,3.24,2.28,3.24,4.8,0,11.28-8.28,26.64-20.28,26.64-15.48,0-22.2-13.92-22.2-28.56,0-21.36,7.68-30.12,17.88-30.12,0-2.88,2.16-3.36,3.36-3.36,6.72,0,9.12,4.68,9.12,14.04,0,14.76-10.08,26.04-17.52,26.04h-1.08c1.68,5.76,5.4,11.4,12.72,11.4,8.52,0,12.6-9.72,13.56-19.32Zm-18.12-24.12c-4.68.96-9.12,9.72-9.12,24.6,0,.84.12,1.8.12,2.64,2.88-.36,10.2-7.44,10.2-20.4,0-3.36-.6-5.4-1.2-6.84Z"/>
            <path class="cls-2" d="m231.57,554.97c-3.48-3.48-4.44-17.64-4.44-31.08,0-20.64,3.48-49.44,6.36-52.2,1.08-1.08,2.28-1.56,3.6-1.56,4.08,0,8.52,4.44,8.52,6.36,0,2.52-7.56,19.08-7.56,58.68,0,14.76,3.48,16.8,5.04,16.8,2.88,0,7.2-9.12,8.52-18.84,0-.36.48-.6,1.08-.6,1.32,0,3.48.96,3.48,2.4,0,4.32-2.64,26.16-12.6,26.16-4.08,0-8.52-2.52-12-6.12Z"/>
            <path class="cls-2" d="m281.25,510.82c3.6.6,5.64,4.2,5.64,7.92,0,2.4-.12,4.8-.48,7.32.6.12,1.2.12,1.92.12,5.52,0,8.04-7.44,8.64-8.04.24-.24.48-.36.84-.36.84,0,1.8.84,1.8,2.52,0,3.12-4.68,10.92-12,10.92-.6,0-1.32,0-1.92-.12-2.64,14.76-9.48,29.64-17.16,29.64-6.84,0-17.16-8.76-17.16-25.2s5.88-35.28,20.28-35.28c7.32,0,11.04,2.64,11.04,6.96,0,1.44-.6,2.76-1.44,3.6Zm-2.16,17.64c-3.24-2.16-5.88-5.52-5.88-9.84s2.16-7.2,5.76-7.8c-.12-1.44-.72-3.84-3-3.84-6.96,0-11.4,16.8-11.4,29.52,0,7.68,1.56,13.8,5.28,13.8s8.04-11.88,9.24-21.84Z"/>
            <path class="cls-2" d="m318.09,533.14c0-10.8,3.24-22.56,3.24-26.28,0-.72-.12-1.2-.48-1.2-2.16,0-10.32,15.24-13.92,31.8-.12,8.76-.72,15.48-.72,15.48.36.36.6,1.32.6,2.28,0,1.56-.6,3.24-2.88,3.24-4.56,0-12.48-4.8-12.48-10.68s3.24-9.36,3.24-36.24c0-6.48-4.68-10.08-4.68-11.52,0-1.56,1.68-3,3-3,1.2,0,3.6.12,6.36,2.88,4.44,4.44,6.36,14.16,7.2,24.12,5.04-12,11.64-24.24,15.6-24.24,10.68,0,13.8,5.52,13.8,8.04,0,3.6-2.52,19.56-2.52,31.92,0,8.52,1.2,15.36,5.28,15.36,6.24,0,9.24-24.12,9.6-27.6.12-1.08.6-1.56,1.2-1.56,1.32,0,3.24,2.4,3.24,4.68v.36c-.96,9.12-3,32.4-16.44,32.4-11.04,0-18.24-12.24-18.24-30.24Z"/>
            <path class="cls-2" d="m346.05,542.38c0-34.08,10.2-41.16,18.96-41.16,3.12,0,6.48.84,8.28,5.28,2.76.24,5.64,1.92,6.96,3.12,1.08,1.08,1.56,4.32,1.56,8.88,0,5.52-.6,13.08-1.08,21.36,5.76-7.8,9.84-15.48,9.84-18.36,0-1.08.6-1.8,1.32-1.8,1.2,0,2.76,1.8,2.76,6.84s-6.48,12.36-14.28,20.28c-.24,4.32-.36,8.76-.36,13.08,0,15.84-6.12,27.12-19.92,27.12-6.24,0-11.88-4.8-11.88-8.88s4.2-8.4,19.92-24c.36-4.68.6-10.08.72-16.08-2.64,10.32-6.24,21.36-9.6,21.36-9.96,0-13.2-7.92-13.2-17.04Zm21.48,17.4c-6.6,7.68-11.28,15-11.28,18.36,0,.84.72,1.44,1.92,1.44,4.56,0,7.8-6.36,9.36-19.8Zm-10.44-15c0,6,1.2,8.04,2.76,8.04,2.4,0,6.6-17.52,8.76-28.68v-4.92c0-4.08.12-7.44.72-9.72-.48-1.68-1.32-3-2.64-3-5.4,0-9.6,20.16-9.6,38.28Z"/>
          </g>
        </g>
      </g>
    </symbol>
  </defs>
  <g id="Calque_1-2" data-name="Calque 1">
    <use width="394.65" height="587.01" xlink:href="#Nouveau_symbole"/>
  </g>
</svg>